<svg width="380" height="380" viewBox="0 0 380 380" fill="none" xmlns="http://www.w3.org/2000/svg">
<rect width="95" height="95" rx="10" fill="#A61919"/>
<rect y="95" width="95" height="95" rx="10" fill="#FFECDE"/>
<rect y="190" width="95" height="95" rx="10" fill="#FFECDE"/>
<rect y="285" width="95" height="95" rx="10" fill="#6B1900"/>
<rect x="95" width="95" height="95" rx="10" fill="#A61919"/>
<rect x="95" y="95" width="95" height="95" rx="10" fill="#FFECDE"/>
<rect x="95" y="190" width="95" height="95" rx="10" fill="#FFECDE"/>
<rect x="95" y="285" width="95" height="95" rx="10" fill="#6B1900"/>
<rect x="190" width="95" height="95" rx="10" fill="#FF5724"/>
<rect x="190" y="95" width="95" height="95" rx="10" fill="#FF5724"/>
<rect x="190" y="190" width="95" height="95" rx="10" fill="#FFECDE"/>
<rect x="190" y="285" width="95" height="95" rx="10" fill="#6B1900"/>
<rect x="285" width="95" height="95" rx="10" fill="#FF5724"/>
<rect x="285" y="95" width="95" height="95" rx="10" fill="#FF5724"/>
<rect x="285" y="190" width="95" height="95" rx="10" fill="#FFECDE"/>
<rect x="285" y="285" width="95" height="95" rx="10" fill="#6B1900"/>
<path d="M31.016 56.544C29.736 56.544 28.5413 56.384 27.432 56.064C26.344 55.744 25.384 55.2853 24.552 54.688C23.7413 54.0693 23.08 53.3333 22.568 52.48C22.0773 51.6053 21.7893 50.624 21.704 49.536H26.856C27.0267 50.3893 27.4533 51.072 28.136 51.584C28.84 52.096 29.736 52.352 30.824 52.352C32.0187 52.352 32.9893 51.9893 33.736 51.264C34.4827 50.5173 34.856 49.5467 34.856 48.352C34.856 47.1147 34.472 46.1547 33.704 45.472C32.9573 44.768 32.0293 44.416 30.92 44.416C30.1093 44.416 29.3947 44.5653 28.776 44.864C28.1787 45.1413 27.7093 45.4933 27.368 45.92H22.472L24.84 33.216H38.696V37.408H28.584L27.56 42.432H27.624C28.1573 41.856 28.7867 41.408 29.512 41.088C30.2587 40.7467 31.1973 40.576 32.328 40.576C33.3733 40.576 34.3653 40.7573 35.304 41.12C36.2427 41.4827 37.064 42.0053 37.768 42.688C38.4933 43.3493 39.0587 44.1707 39.464 45.152C39.8907 46.112 40.104 47.1893 40.104 48.384C40.104 49.6213 39.88 50.7413 39.432 51.744C38.984 52.7467 38.3547 53.6107 37.544 54.336C36.7547 55.04 35.7947 55.584 34.664 55.968C33.5547 56.352 32.3387 56.544 31.016 56.544ZM52.1963 56.544C50.7243 56.544 49.3803 56.2667 48.1643 55.712C46.9696 55.1573 45.9349 54.368 45.0603 53.344C44.1856 52.2987 43.5029 51.04 43.0123 49.568C42.5429 48.096 42.3083 46.4533 42.3083 44.64C42.3083 42.8267 42.5429 41.184 43.0123 39.712C43.5029 38.24 44.1856 36.992 45.0603 35.968C45.9349 34.9227 46.9803 34.1227 48.1963 33.568C49.4123 33.0133 50.7563 32.736 52.2283 32.736C53.7216 32.736 55.0763 33.0133 56.2923 33.568C57.5296 34.1227 58.5749 34.9227 59.4283 35.968C60.3029 36.992 60.9749 38.24 61.4443 39.712C61.9136 41.184 62.1483 42.8267 62.1483 44.64C62.1483 46.4533 61.9136 48.096 61.4443 49.568C60.9749 51.04 60.3029 52.2987 59.4283 53.344C58.5536 54.368 57.4976 55.1573 56.2603 55.712C55.0443 56.2667 53.6896 56.544 52.1963 56.544ZM52.2283 52.416C53.0389 52.416 53.7323 52.2347 54.3083 51.872C54.8843 51.488 55.3536 50.9547 55.7163 50.272C56.0789 49.5893 56.3456 48.7787 56.5163 47.84C56.6869 46.88 56.7723 45.8133 56.7723 44.64C56.7723 43.4667 56.6869 42.4 56.5163 41.44C56.3456 40.48 56.0789 39.6587 55.7163 38.976C55.3536 38.2933 54.8843 37.76 54.3083 37.376C53.7323 36.992 53.0389 36.8 52.2283 36.8C51.4176 36.8 50.7243 36.992 50.1483 37.376C49.5936 37.76 49.1243 38.2933 48.7403 38.976C48.3776 39.6587 48.1109 40.48 47.9403 41.44C47.7696 42.4 47.6843 43.4667 47.6843 44.64C47.6843 45.792 47.7696 46.848 47.9403 47.808C48.1109 48.768 48.3776 49.5893 48.7403 50.272C49.1243 50.9547 49.5936 51.488 50.1483 51.872C50.7243 52.2347 51.4176 52.416 52.2283 52.416ZM91.9495 38.144H100.398C102.238 38.144 103.63 38.552 104.574 39.368C105.582 40.248 106.086 41.384 106.086 42.776C106.086 44.568 105.126 45.76 103.206 46.352V46.448C104.358 46.72 105.238 47.24 105.846 48.008C106.47 48.76 106.782 49.688 106.782 50.792C106.782 51.656 106.63 52.408 106.326 53.048C106.022 53.688 105.59 54.232 105.03 54.68C103.958 55.56 102.486 56 100.614 56H91.9495V38.144ZM99.8215 45.32C100.526 45.32 101.086 45.16 101.502 44.84C101.934 44.504 102.15 44 102.15 43.328C102.15 42.672 101.942 42.176 101.526 41.84C101.126 41.488 100.574 41.312 99.8695 41.312H96.0055V45.32H99.8215ZM100.182 52.784C100.982 52.784 101.614 52.568 102.078 52.136C102.51 51.736 102.726 51.192 102.726 50.504C102.726 49.72 102.478 49.136 101.982 48.752C101.486 48.368 100.862 48.176 100.11 48.176H96.0055V52.784H100.182ZM112.349 45.512H112.421C112.837 44.616 113.333 43.976 113.909 43.592C114.485 43.208 115.173 43.016 115.973 43.016C116.357 43.016 116.621 43.048 116.765 43.112V46.4H116.669C116.397 46.352 116.133 46.328 115.877 46.328C114.853 46.312 114.029 46.624 113.405 47.264C112.797 47.888 112.493 48.824 112.493 50.072V56H108.725V43.232H112.349V45.512ZM126.518 56C126.422 55.856 126.334 55.656 126.254 55.4C126.174 55.128 126.118 54.808 126.086 54.44H126.038C125.622 55.032 125.118 55.496 124.526 55.832C123.95 56.168 123.166 56.336 122.174 56.336C121.55 56.336 120.966 56.248 120.422 56.072C119.894 55.912 119.43 55.672 119.03 55.352C118.646 55.032 118.342 54.632 118.118 54.152C117.91 53.656 117.806 53.096 117.806 52.472C117.806 51.768 117.934 51.184 118.19 50.72C118.462 50.256 118.822 49.88 119.27 49.592C119.718 49.304 120.246 49.088 120.854 48.944C121.462 48.784 122.118 48.664 122.822 48.584C123.958 48.424 124.774 48.232 125.27 48.008C125.782 47.784 126.038 47.432 126.038 46.952C126.038 46.488 125.886 46.12 125.582 45.848C125.278 45.56 124.798 45.416 124.142 45.416C123.422 45.416 122.878 45.568 122.51 45.872C122.158 46.176 121.958 46.584 121.91 47.096H118.43C118.446 46.552 118.574 46.024 118.814 45.512C119.054 45 119.406 44.552 119.87 44.168C120.334 43.768 120.918 43.456 121.622 43.232C122.326 42.992 123.15 42.872 124.094 42.872C124.91 42.872 125.614 42.936 126.206 43.064C126.798 43.176 127.318 43.368 127.766 43.64C128.438 44.024 128.926 44.544 129.23 45.2C129.55 45.84 129.71 46.592 129.71 47.456V54.008C129.71 54.984 129.87 55.576 130.19 55.784V56H126.518ZM123.35 53.864C124.198 53.864 124.87 53.632 125.366 53.168C125.878 52.704 126.134 52.12 126.134 51.416V49.76C125.862 49.936 125.526 50.08 125.126 50.192C124.742 50.288 124.342 50.384 123.926 50.48C123.094 50.656 122.478 50.872 122.078 51.128C121.678 51.384 121.478 51.792 121.478 52.352C121.478 52.912 121.662 53.304 122.03 53.528C122.398 53.752 122.838 53.864 123.35 53.864ZM135.904 45.176H135.976C136.376 44.408 136.904 43.832 137.56 43.448C138.232 43.064 139.016 42.872 139.912 42.872C141.32 42.872 142.408 43.304 143.176 44.168C143.96 45.016 144.352 46.16 144.352 47.6V56H140.608V48.32C140.608 47.616 140.424 47.056 140.056 46.64C139.704 46.208 139.176 45.992 138.472 45.992C137.736 45.992 137.144 46.256 136.696 46.784C136.248 47.312 136.024 47.984 136.024 48.8V56H132.256V43.232H135.904V45.176ZM151.612 56.408C150.78 56.408 150.028 56.256 149.356 55.952C148.684 55.632 148.108 55.184 147.628 54.608C147.148 54.016 146.78 53.304 146.524 52.472C146.268 51.624 146.14 50.672 146.14 49.616C146.14 48.64 146.268 47.744 146.524 46.928C146.796 46.096 147.172 45.384 147.652 44.792C148.132 44.184 148.708 43.712 149.38 43.376C150.068 43.04 150.828 42.872 151.66 42.872C152.54 42.872 153.284 43.064 153.892 43.448C154.5 43.816 155.02 44.336 155.452 45.008H155.5C155.468 44.608 155.444 44.152 155.428 43.64C155.412 43.128 155.404 42.6 155.404 42.056V38.144H159.172V56H155.548V54.128H155.5C155.132 54.912 154.604 55.488 153.916 55.856C153.244 56.224 152.476 56.408 151.612 56.408ZM152.62 53.384C153.532 53.384 154.244 53.04 154.756 52.352C155.268 51.648 155.524 50.736 155.524 49.616C155.524 49.056 155.46 48.536 155.332 48.056C155.22 47.576 155.044 47.168 154.804 46.832C154.564 46.48 154.26 46.208 153.892 46.016C153.54 45.824 153.124 45.728 152.644 45.728C151.748 45.728 151.076 46.088 150.628 46.808C150.196 47.512 149.98 48.44 149.98 49.592C149.98 50.744 150.196 51.664 150.628 52.352C151.076 53.04 151.74 53.384 152.62 53.384ZM166.974 56.408C166.046 56.408 165.214 56.304 164.478 56.096C163.742 55.888 163.11 55.592 162.582 55.208C162.07 54.824 161.662 54.368 161.358 53.84C161.07 53.296 160.902 52.704 160.854 52.064H164.406C164.518 52.672 164.79 53.136 165.222 53.456C165.67 53.776 166.262 53.936 166.998 53.936C167.67 53.936 168.19 53.808 168.558 53.552C168.926 53.296 169.11 52.936 169.11 52.472C169.11 52.184 169.022 51.952 168.846 51.776C168.67 51.6 168.43 51.456 168.126 51.344C167.822 51.232 167.47 51.144 167.07 51.08C166.686 51 166.27 50.92 165.822 50.84C165.246 50.728 164.686 50.6 164.142 50.456C163.598 50.312 163.11 50.096 162.678 49.808C162.246 49.52 161.894 49.144 161.622 48.68C161.366 48.216 161.238 47.608 161.238 46.856C161.238 46.2 161.374 45.624 161.646 45.128C161.934 44.632 162.318 44.216 162.798 43.88C163.278 43.544 163.846 43.296 164.502 43.136C165.158 42.96 165.862 42.872 166.614 42.872C168.39 42.872 169.734 43.224 170.646 43.928C171.558 44.616 172.102 45.52 172.278 46.64H168.774C168.534 45.728 167.814 45.272 166.614 45.272C166.038 45.272 165.574 45.384 165.222 45.608C164.886 45.832 164.718 46.152 164.718 46.568C164.718 46.808 164.798 47.008 164.958 47.168C165.118 47.312 165.342 47.432 165.63 47.528C165.918 47.624 166.254 47.704 166.638 47.768C167.022 47.832 167.43 47.904 167.862 47.984C168.438 48.08 169.014 48.208 169.59 48.368C170.166 48.512 170.686 48.736 171.15 49.04C171.614 49.344 171.99 49.752 172.278 50.264C172.582 50.76 172.734 51.408 172.734 52.208C172.734 52.896 172.59 53.504 172.302 54.032C172.014 54.56 171.614 55 171.102 55.352C170.59 55.704 169.982 55.968 169.278 56.144C168.574 56.32 167.806 56.408 166.974 56.408Z" fill="white"/>
<path d="M65.0085 43.04H70.8645V36.864H75.1525V43.04H81.0085V47.072H75.1525V53.312H70.8645V47.072H65.0085V43.04Z" fill="#FF5724"/>
<path d="M228.992 59C229.013 57.592 229.227 56.3973 229.632 55.416C230.059 54.4347 230.645 53.5173 231.392 52.664C231.925 52.088 232.501 51.544 233.12 51.032C233.739 50.4987 234.368 49.9973 235.008 49.528C235.669 49.0373 236.32 48.5787 236.96 48.152C237.621 47.704 238.24 47.2667 238.816 46.84C239.563 46.3067 240.139 45.7627 240.544 45.208C240.949 44.6533 241.152 43.9707 241.152 43.16C241.152 42.2 240.875 41.432 240.32 40.856C239.787 40.2587 239.019 39.96 238.016 39.96C236.821 39.96 235.936 40.312 235.36 41.016C234.997 41.4213 234.731 41.912 234.56 42.488C234.389 43.0427 234.304 43.6613 234.304 44.344H229.344C229.344 43.192 229.461 42.1893 229.696 41.336C229.952 40.4613 230.347 39.6507 230.88 38.904C231.541 37.944 232.48 37.176 233.696 36.6C234.912 36.024 236.405 35.736 238.176 35.736C239.499 35.736 240.672 35.928 241.696 36.312C242.72 36.6747 243.584 37.1867 244.288 37.848C244.992 38.5093 245.525 39.2773 245.888 40.152C246.251 41.0267 246.432 41.976 246.432 43C246.432 44.3227 246.165 45.4427 245.632 46.36C245.099 47.256 244.416 48.056 243.584 48.76C242.987 49.2933 242.336 49.7947 241.632 50.264C240.949 50.7333 240.256 51.192 239.552 51.64C238.869 52.088 238.208 52.5467 237.568 53.016C236.949 53.4853 236.416 53.9973 235.968 54.552V54.648H246.4V59H228.992ZM258.728 59.544C257.256 59.544 255.912 59.2667 254.696 58.712C253.501 58.1573 252.466 57.368 251.592 56.344C250.717 55.2987 250.034 54.04 249.544 52.568C249.074 51.096 248.84 49.4533 248.84 47.64C248.84 45.8267 249.074 44.184 249.544 42.712C250.034 41.24 250.717 39.992 251.592 38.968C252.466 37.9227 253.512 37.1227 254.728 36.568C255.944 36.0133 257.288 35.736 258.76 35.736C260.253 35.736 261.608 36.0133 262.824 36.568C264.061 37.1227 265.106 37.9227 265.96 38.968C266.834 39.992 267.506 41.24 267.976 42.712C268.445 44.184 268.68 45.8267 268.68 47.64C268.68 49.4533 268.445 51.096 267.976 52.568C267.506 54.04 266.834 55.2987 265.96 56.344C265.085 57.368 264.029 58.1573 262.792 58.712C261.576 59.2667 260.221 59.544 258.728 59.544ZM258.76 55.416C259.57 55.416 260.264 55.2347 260.84 54.872C261.416 54.488 261.885 53.9547 262.248 53.272C262.61 52.5893 262.877 51.7787 263.048 50.84C263.218 49.88 263.304 48.8133 263.304 47.64C263.304 46.4667 263.218 45.4 263.048 44.44C262.877 43.48 262.61 42.6587 262.248 41.976C261.885 41.2933 261.416 40.76 260.84 40.376C260.264 39.992 259.57 39.8 258.76 39.8C257.949 39.8 257.256 39.992 256.68 40.376C256.125 40.76 255.656 41.2933 255.272 41.976C254.909 42.6587 254.642 43.48 254.472 44.44C254.301 45.4 254.216 46.4667 254.216 47.64C254.216 48.792 254.301 49.848 254.472 50.808C254.642 51.768 254.909 52.5893 255.272 53.272C255.656 53.9547 256.125 54.488 256.68 54.872C257.256 55.2347 257.949 55.416 258.76 55.416ZM280.884 59.544C279.412 59.544 278.068 59.2667 276.852 58.712C275.657 58.1573 274.622 57.368 273.748 56.344C272.873 55.2987 272.19 54.04 271.7 52.568C271.23 51.096 270.996 49.4533 270.996 47.64C270.996 45.8267 271.23 44.184 271.7 42.712C272.19 41.24 272.873 39.992 273.748 38.968C274.622 37.9227 275.668 37.1227 276.884 36.568C278.1 36.0133 279.444 35.736 280.916 35.736C282.409 35.736 283.764 36.0133 284.98 36.568C286.217 37.1227 287.262 37.9227 288.116 38.968C288.99 39.992 289.662 41.24 290.132 42.712C290.601 44.184 290.836 45.8267 290.836 47.64C290.836 49.4533 290.601 51.096 290.132 52.568C289.662 54.04 288.99 55.2987 288.116 56.344C287.241 57.368 286.185 58.1573 284.948 58.712C283.732 59.2667 282.377 59.544 280.884 59.544ZM280.916 55.416C281.726 55.416 282.42 55.2347 282.996 54.872C283.572 54.488 284.041 53.9547 284.404 53.272C284.766 52.5893 285.033 51.7787 285.204 50.84C285.374 49.88 285.46 48.8133 285.46 47.64C285.46 46.4667 285.374 45.4 285.204 44.44C285.033 43.48 284.766 42.6587 284.404 41.976C284.041 41.2933 283.572 40.76 282.996 40.376C282.42 39.992 281.726 39.8 280.916 39.8C280.105 39.8 279.412 39.992 278.836 40.376C278.281 40.76 277.812 41.2933 277.428 41.976C277.065 42.6587 276.798 43.48 276.628 44.44C276.457 45.4 276.372 46.4667 276.372 47.64C276.372 48.792 276.457 49.848 276.628 50.808C276.798 51.768 277.065 52.5893 277.428 53.272C277.812 53.9547 278.281 54.488 278.836 54.872C279.412 55.2347 280.105 55.416 280.916 55.416ZM303.04 59.544C301.568 59.544 300.224 59.2667 299.008 58.712C297.813 58.1573 296.779 57.368 295.904 56.344C295.029 55.2987 294.347 54.04 293.856 52.568C293.387 51.096 293.152 49.4533 293.152 47.64C293.152 45.8267 293.387 44.184 293.856 42.712C294.347 41.24 295.029 39.992 295.904 38.968C296.779 37.9227 297.824 37.1227 299.04 36.568C300.256 36.0133 301.6 35.736 303.072 35.736C304.565 35.736 305.92 36.0133 307.136 36.568C308.373 37.1227 309.419 37.9227 310.272 38.968C311.147 39.992 311.819 41.24 312.288 42.712C312.757 44.184 312.992 45.8267 312.992 47.64C312.992 49.4533 312.757 51.096 312.288 52.568C311.819 54.04 311.147 55.2987 310.272 56.344C309.397 57.368 308.341 58.1573 307.104 58.712C305.888 59.2667 304.533 59.544 303.04 59.544ZM303.072 55.416C303.883 55.416 304.576 55.2347 305.152 54.872C305.728 54.488 306.197 53.9547 306.56 53.272C306.923 52.5893 307.189 51.7787 307.36 50.84C307.531 49.88 307.616 48.8133 307.616 47.64C307.616 46.4667 307.531 45.4 307.36 44.44C307.189 43.48 306.923 42.6587 306.56 41.976C306.197 41.2933 305.728 40.76 305.152 40.376C304.576 39.992 303.883 39.8 303.072 39.8C302.261 39.8 301.568 39.992 300.992 40.376C300.437 40.76 299.968 41.2933 299.584 41.976C299.221 42.6587 298.955 43.48 298.784 44.44C298.613 45.4 298.528 46.4667 298.528 47.64C298.528 48.792 298.613 49.848 298.784 50.808C298.955 51.768 299.221 52.5893 299.584 53.272C299.968 53.9547 300.437 54.488 300.992 54.872C301.568 55.2347 302.261 55.416 303.072 55.416Z" fill="white"/>
<path d="M323.571 46.04H329.427V39.864H333.715V46.04H339.571V50.072H333.715V56.312H329.427V50.072H323.571V46.04Z" fill="#A61919"/>
<path d="M51.992 154C52.0133 152.592 52.2267 151.397 52.632 150.416C53.0587 149.435 53.6453 148.517 54.392 147.664C54.9253 147.088 55.5013 146.544 56.12 146.032C56.7387 145.499 57.368 144.997 58.008 144.528C58.6693 144.037 59.32 143.579 59.96 143.152C60.6213 142.704 61.24 142.267 61.816 141.84C62.5627 141.307 63.1387 140.763 63.544 140.208C63.9493 139.653 64.152 138.971 64.152 138.16C64.152 137.2 63.8747 136.432 63.32 135.856C62.7867 135.259 62.0187 134.96 61.016 134.96C59.8213 134.96 58.936 135.312 58.36 136.016C57.9973 136.421 57.7307 136.912 57.56 137.488C57.3893 138.043 57.304 138.661 57.304 139.344H52.344C52.344 138.192 52.4613 137.189 52.696 136.336C52.952 135.461 53.3467 134.651 53.88 133.904C54.5413 132.944 55.48 132.176 56.696 131.6C57.912 131.024 59.4053 130.736 61.176 130.736C62.4987 130.736 63.672 130.928 64.696 131.312C65.72 131.675 66.584 132.187 67.288 132.848C67.992 133.509 68.5253 134.277 68.888 135.152C69.2507 136.027 69.432 136.976 69.432 138C69.432 139.323 69.1653 140.443 68.632 141.36C68.0987 142.256 67.416 143.056 66.584 143.76C65.9867 144.293 65.336 144.795 64.632 145.264C63.9493 145.733 63.256 146.192 62.552 146.64C61.8693 147.088 61.208 147.547 60.568 148.016C59.9493 148.485 59.416 148.997 58.968 149.552V149.648H69.4V154H51.992ZM80.5473 154.544C79.2673 154.544 78.0726 154.384 76.9633 154.064C75.8753 153.744 74.9153 153.285 74.0833 152.688C73.2726 152.069 72.6113 151.333 72.0993 150.48C71.6086 149.605 71.3206 148.624 71.2353 147.536H76.3873C76.5579 148.389 76.9846 149.072 77.6673 149.584C78.3713 150.096 79.2673 150.352 80.3553 150.352C81.5499 150.352 82.5206 149.989 83.2673 149.264C84.0139 148.517 84.3873 147.547 84.3873 146.352C84.3873 145.115 84.0033 144.155 83.2353 143.472C82.4886 142.768 81.5606 142.416 80.4513 142.416C79.6406 142.416 78.9259 142.565 78.3073 142.864C77.7099 143.141 77.2406 143.493 76.8993 143.92H72.0033L74.3713 131.216H88.2273V135.408H78.1153L77.0913 140.432H77.1553C77.6886 139.856 78.3179 139.408 79.0433 139.088C79.7899 138.747 80.7286 138.576 81.8593 138.576C82.9046 138.576 83.8966 138.757 84.8353 139.12C85.7739 139.483 86.5953 140.005 87.2993 140.688C88.0246 141.349 88.5899 142.171 88.9953 143.152C89.4219 144.112 89.6353 145.189 89.6353 146.384C89.6353 147.621 89.4113 148.741 88.9633 149.744C88.5153 150.747 87.8859 151.611 87.0753 152.336C86.2859 153.04 85.3259 153.584 84.1953 153.968C83.0859 154.352 81.8699 154.544 80.5473 154.544ZM101.728 154.544C100.256 154.544 98.9115 154.267 97.6955 153.712C96.5008 153.157 95.4662 152.368 94.5915 151.344C93.7168 150.299 93.0342 149.04 92.5435 147.568C92.0742 146.096 91.8395 144.453 91.8395 142.64C91.8395 140.827 92.0742 139.184 92.5435 137.712C93.0342 136.24 93.7168 134.992 94.5915 133.968C95.4662 132.923 96.5115 132.123 97.7275 131.568C98.9435 131.013 100.288 130.736 101.76 130.736C103.253 130.736 104.608 131.013 105.824 131.568C107.061 132.123 108.106 132.923 108.96 133.968C109.834 134.992 110.506 136.24 110.976 137.712C111.445 139.184 111.68 140.827 111.68 142.64C111.68 144.453 111.445 146.096 110.976 147.568C110.506 149.04 109.834 150.299 108.96 151.344C108.085 152.368 107.029 153.157 105.792 153.712C104.576 154.267 103.221 154.544 101.728 154.544ZM101.76 150.416C102.57 150.416 103.264 150.235 103.84 149.872C104.416 149.488 104.885 148.955 105.248 148.272C105.61 147.589 105.877 146.779 106.048 145.84C106.218 144.88 106.304 143.813 106.304 142.64C106.304 141.467 106.218 140.4 106.048 139.44C105.877 138.48 105.61 137.659 105.248 136.976C104.885 136.293 104.416 135.76 103.84 135.376C103.264 134.992 102.57 134.8 101.76 134.8C100.949 134.8 100.256 134.992 99.6795 135.376C99.1248 135.76 98.6555 136.293 98.2715 136.976C97.9088 137.659 97.6422 138.48 97.4715 139.44C97.3008 140.4 97.2155 141.467 97.2155 142.64C97.2155 143.792 97.3008 144.848 97.4715 145.808C97.6422 146.768 97.9088 147.589 98.2715 148.272C98.6555 148.955 99.1248 149.488 99.6795 149.872C100.256 150.235 100.949 150.416 101.76 150.416Z" fill="#6B1900"/>
<path d="M122.259 141.04H128.115V134.864H132.403V141.04H138.259V145.072H132.403V151.312H128.115V145.072H122.259V141.04Z" fill="#FF5724"/>
<path d="M230.528 148.408C229.232 148.408 228.04 148.176 226.952 147.712C225.88 147.248 224.96 146.608 224.192 145.792C223.424 144.96 222.824 143.976 222.392 142.84C221.976 141.704 221.768 140.472 221.768 139.144C221.768 137.816 221.976 136.584 222.392 135.448C222.808 134.312 223.392 133.328 224.144 132.496C224.912 131.664 225.832 131.016 226.904 130.552C227.992 130.072 229.2 129.832 230.528 129.832C231.52 129.832 232.432 129.952 233.264 130.192C234.096 130.416 234.816 130.76 235.424 131.224C236.24 131.816 236.872 132.536 237.32 133.384C237.784 134.232 238.072 135.16 238.184 136.168H234.104C233.976 135.32 233.592 134.624 232.952 134.08C232.328 133.52 231.512 133.24 230.504 133.24C229.736 133.24 229.064 133.392 228.488 133.696C227.928 133.984 227.456 134.392 227.072 134.92C226.704 135.448 226.424 136.072 226.232 136.792C226.04 137.512 225.944 138.296 225.944 139.144C225.944 139.992 226.048 140.776 226.256 141.496C226.48 142.216 226.784 142.84 227.168 143.368C227.568 143.88 228.048 144.288 228.608 144.592C229.184 144.88 229.824 145.024 230.528 145.024C231.632 145.024 232.504 144.712 233.144 144.088C233.784 143.464 234.152 142.688 234.248 141.76H238.352C238.288 142.656 238.064 143.504 237.68 144.304C237.296 145.088 236.8 145.784 236.192 146.392C235.52 147.064 234.72 147.568 233.792 147.904C232.864 148.24 231.776 148.408 230.528 148.408ZM248.529 148V146.176H248.457C247.993 146.928 247.457 147.48 246.849 147.832C246.241 148.184 245.497 148.36 244.617 148.36C243.161 148.36 242.049 147.936 241.281 147.088C240.513 146.224 240.129 145.088 240.129 143.68V135.232H243.897V142.96C243.897 143.68 244.065 144.232 244.401 144.616C244.753 145 245.265 145.192 245.937 145.192C246.705 145.192 247.305 144.936 247.737 144.424C248.169 143.912 248.385 143.256 248.385 142.456V135.232H252.105V148H248.529ZM259.896 148.408C258.968 148.408 258.136 148.304 257.4 148.096C256.664 147.888 256.032 147.592 255.504 147.208C254.992 146.824 254.584 146.368 254.28 145.84C253.992 145.296 253.824 144.704 253.776 144.064H257.328C257.44 144.672 257.712 145.136 258.144 145.456C258.592 145.776 259.184 145.936 259.92 145.936C260.592 145.936 261.112 145.808 261.48 145.552C261.848 145.296 262.032 144.936 262.032 144.472C262.032 144.184 261.944 143.952 261.768 143.776C261.592 143.6 261.352 143.456 261.048 143.344C260.744 143.232 260.392 143.144 259.992 143.08C259.608 143 259.192 142.92 258.744 142.84C258.168 142.728 257.608 142.6 257.064 142.456C256.52 142.312 256.032 142.096 255.6 141.808C255.168 141.52 254.816 141.144 254.544 140.68C254.288 140.216 254.16 139.608 254.16 138.856C254.16 138.2 254.296 137.624 254.568 137.128C254.856 136.632 255.24 136.216 255.72 135.88C256.2 135.544 256.768 135.296 257.424 135.136C258.08 134.96 258.784 134.872 259.536 134.872C261.312 134.872 262.656 135.224 263.568 135.928C264.48 136.616 265.024 137.52 265.2 138.64H261.696C261.456 137.728 260.736 137.272 259.536 137.272C258.96 137.272 258.496 137.384 258.144 137.608C257.808 137.832 257.64 138.152 257.64 138.568C257.64 138.808 257.72 139.008 257.88 139.168C258.04 139.312 258.264 139.432 258.552 139.528C258.84 139.624 259.176 139.704 259.56 139.768C259.944 139.832 260.352 139.904 260.784 139.984C261.36 140.08 261.936 140.208 262.512 140.368C263.088 140.512 263.608 140.736 264.072 141.04C264.536 141.344 264.912 141.752 265.2 142.264C265.504 142.76 265.656 143.408 265.656 144.208C265.656 144.896 265.512 145.504 265.224 146.032C264.936 146.56 264.536 147 264.024 147.352C263.512 147.704 262.904 147.968 262.2 148.144C261.496 148.32 260.728 148.408 259.896 148.408ZM266.434 135.232H268.354V131.152H272.05V135.232H274.546V137.632H272.05V143.968C272.05 144.448 272.17 144.776 272.41 144.952C272.666 145.112 273.018 145.192 273.466 145.192C273.594 145.192 273.738 145.192 273.898 145.192C274.058 145.176 274.202 145.16 274.33 145.144H274.522V147.952C274.314 147.984 274.026 148.024 273.658 148.072C273.29 148.12 272.85 148.144 272.338 148.144C271.746 148.144 271.202 148.096 270.706 148C270.226 147.888 269.81 147.704 269.458 147.448C269.106 147.176 268.834 146.832 268.642 146.416C268.45 145.984 268.354 145.44 268.354 144.784V137.632H266.434V135.232ZM282.674 148.408C281.65 148.408 280.722 148.24 279.89 147.904C279.058 147.552 278.346 147.072 277.754 146.464C277.162 145.856 276.706 145.144 276.386 144.328C276.066 143.496 275.906 142.6 275.906 141.64C275.906 140.68 276.066 139.792 276.386 138.976C276.706 138.144 277.162 137.424 277.754 136.816C278.346 136.208 279.058 135.736 279.89 135.4C280.722 135.048 281.65 134.872 282.674 134.872C283.682 134.872 284.602 135.048 285.434 135.4C286.266 135.736 286.97 136.208 287.546 136.816C288.138 137.424 288.594 138.144 288.914 138.976C289.234 139.792 289.394 140.68 289.394 141.64C289.394 142.6 289.234 143.496 288.914 144.328C288.594 145.144 288.138 145.856 287.546 146.464C286.97 147.072 286.266 147.552 285.434 147.904C284.602 148.24 283.682 148.408 282.674 148.408ZM282.65 145.672C283.594 145.672 284.314 145.304 284.81 144.568C285.322 143.816 285.578 142.84 285.578 141.64C285.578 140.424 285.322 139.44 284.81 138.688C284.314 137.936 283.594 137.56 282.65 137.56C281.69 137.56 280.962 137.936 280.466 138.688C279.97 139.44 279.722 140.424 279.722 141.64C279.722 142.84 279.97 143.816 280.466 144.568C280.962 145.304 281.69 145.672 282.65 145.672ZM291.295 135.232H294.919V137.224H294.991C295.407 136.456 295.919 135.872 296.527 135.472C297.151 135.072 297.919 134.872 298.831 134.872C300.511 134.872 301.679 135.68 302.335 137.296H302.383C302.911 136.432 303.511 135.816 304.183 135.448C304.871 135.064 305.623 134.872 306.439 134.872C307.863 134.872 308.935 135.304 309.655 136.168C310.375 137.016 310.735 138.152 310.735 139.576V148H306.991V140.2C306.991 139.496 306.823 138.952 306.487 138.568C306.167 138.168 305.703 137.968 305.095 137.968C304.423 137.968 303.887 138.224 303.487 138.736C303.103 139.248 302.911 139.912 302.911 140.728V148H299.143V140.2C299.143 139.496 298.983 138.952 298.663 138.568C298.359 138.168 297.895 137.968 297.271 137.968C296.599 137.968 296.063 138.224 295.663 138.736C295.263 139.248 295.063 139.912 295.063 140.728V148H291.295V135.232ZM319.283 148.384C318.243 148.384 317.307 148.216 316.475 147.88C315.643 147.528 314.931 147.048 314.339 146.44C313.763 145.832 313.315 145.12 312.995 144.304C312.691 143.488 312.539 142.6 312.539 141.64C312.539 140.68 312.699 139.792 313.019 138.976C313.339 138.144 313.787 137.424 314.363 136.816C314.939 136.208 315.627 135.736 316.427 135.4C317.227 135.048 318.115 134.872 319.091 134.872C320.003 134.872 320.819 135.016 321.539 135.304C322.275 135.592 322.923 135.992 323.483 136.504C324.203 137.208 324.731 138.08 325.067 139.12C325.403 140.16 325.563 141.312 325.547 142.576H316.235C316.363 143.536 316.683 144.288 317.195 144.832C317.707 145.376 318.419 145.648 319.331 145.648C319.923 145.648 320.403 145.544 320.771 145.336C321.155 145.112 321.451 144.8 321.659 144.4H325.307C325.147 144.96 324.891 145.488 324.539 145.984C324.203 146.464 323.779 146.888 323.267 147.256C322.771 147.608 322.187 147.88 321.515 148.072C320.843 148.28 320.099 148.384 319.283 148.384ZM319.091 137.536C318.227 137.536 317.571 137.792 317.123 138.304C316.675 138.816 316.387 139.512 316.259 140.392H321.707C321.643 139.496 321.379 138.8 320.915 138.304C320.451 137.792 319.843 137.536 319.091 137.536ZM331.06 137.512H331.132C331.548 136.616 332.044 135.976 332.62 135.592C333.196 135.208 333.884 135.016 334.684 135.016C335.068 135.016 335.332 135.048 335.476 135.112V138.4H335.38C335.108 138.352 334.844 138.328 334.588 138.328C333.564 138.312 332.74 138.624 332.116 139.264C331.508 139.888 331.204 140.824 331.204 142.072V148H327.436V135.232H331.06V137.512ZM342.583 148.408C341.655 148.408 340.823 148.304 340.087 148.096C339.351 147.888 338.719 147.592 338.191 147.208C337.679 146.824 337.271 146.368 336.967 145.84C336.679 145.296 336.511 144.704 336.463 144.064H340.015C340.127 144.672 340.399 145.136 340.831 145.456C341.279 145.776 341.871 145.936 342.607 145.936C343.279 145.936 343.799 145.808 344.167 145.552C344.535 145.296 344.719 144.936 344.719 144.472C344.719 144.184 344.631 143.952 344.455 143.776C344.279 143.6 344.039 143.456 343.735 143.344C343.431 143.232 343.079 143.144 342.679 143.08C342.295 143 341.879 142.92 341.431 142.84C340.855 142.728 340.295 142.6 339.751 142.456C339.207 142.312 338.719 142.096 338.287 141.808C337.855 141.52 337.503 141.144 337.231 140.68C336.975 140.216 336.847 139.608 336.847 138.856C336.847 138.2 336.983 137.624 337.255 137.128C337.543 136.632 337.927 136.216 338.407 135.88C338.887 135.544 339.455 135.296 340.111 135.136C340.767 134.96 341.471 134.872 342.223 134.872C343.999 134.872 345.343 135.224 346.255 135.928C347.167 136.616 347.711 137.52 347.887 138.64H344.383C344.143 137.728 343.423 137.272 342.223 137.272C341.647 137.272 341.183 137.384 340.831 137.608C340.495 137.832 340.327 138.152 340.327 138.568C340.327 138.808 340.407 139.008 340.567 139.168C340.727 139.312 340.951 139.432 341.239 139.528C341.527 139.624 341.863 139.704 342.247 139.768C342.631 139.832 343.039 139.904 343.471 139.984C344.047 140.08 344.623 140.208 345.199 140.368C345.775 140.512 346.295 140.736 346.759 141.04C347.223 141.344 347.599 141.752 347.887 142.264C348.191 142.76 348.343 143.408 348.343 144.208C348.343 144.896 348.199 145.504 347.911 146.032C347.623 146.56 347.223 147 346.711 147.352C346.199 147.704 345.591 147.968 344.887 148.144C344.183 148.32 343.415 148.408 342.583 148.408Z" fill="white"/>
<path d="M28.352 244.272C27.488 244.272 26.6933 244.117 25.968 243.808C25.2533 243.499 24.64 243.072 24.128 242.528C23.616 241.973 23.216 241.317 22.928 240.56C22.6507 239.803 22.512 238.981 22.512 238.096C22.512 237.211 22.6507 236.389 22.928 235.632C23.2053 234.875 23.5947 234.219 24.096 233.664C24.608 233.109 25.2213 232.677 25.936 232.368C26.6613 232.048 27.4667 231.888 28.352 231.888C29.0133 231.888 29.6213 231.968 30.176 232.128C30.7307 232.277 31.2107 232.507 31.616 232.816C32.16 233.211 32.5813 233.691 32.88 234.256C33.1893 234.821 33.3813 235.44 33.456 236.112H30.736C30.6507 235.547 30.3947 235.083 29.968 234.72C29.552 234.347 29.008 234.16 28.336 234.16C27.824 234.16 27.376 234.261 26.992 234.464C26.6187 234.656 26.304 234.928 26.048 235.28C25.8027 235.632 25.616 236.048 25.488 236.528C25.36 237.008 25.296 237.531 25.296 238.096C25.296 238.661 25.3653 239.184 25.504 239.664C25.6533 240.144 25.856 240.56 26.112 240.912C26.3787 241.253 26.6987 241.525 27.072 241.728C27.456 241.92 27.8827 242.016 28.352 242.016C29.088 242.016 29.6693 241.808 30.096 241.392C30.5227 240.976 30.768 240.459 30.832 239.84H33.568C33.5253 240.437 33.376 241.003 33.12 241.536C32.864 242.059 32.5333 242.523 32.128 242.928C31.68 243.376 31.1467 243.712 30.528 243.936C29.9093 244.16 29.184 244.272 28.352 244.272ZM40.2724 244C40.2084 243.904 40.1497 243.771 40.0964 243.6C40.043 243.419 40.0057 243.205 39.9844 242.96H39.9524C39.675 243.355 39.339 243.664 38.9444 243.888C38.5604 244.112 38.0377 244.224 37.3764 244.224C36.9604 244.224 36.571 244.165 36.2084 244.048C35.8564 243.941 35.547 243.781 35.2804 243.568C35.0244 243.355 34.8217 243.088 34.6724 242.768C34.5337 242.437 34.4644 242.064 34.4644 241.648C34.4644 241.179 34.5497 240.789 34.7204 240.48C34.9017 240.171 35.1417 239.92 35.4404 239.728C35.739 239.536 36.091 239.392 36.4964 239.296C36.9017 239.189 37.339 239.109 37.8084 239.056C38.5657 238.949 39.1097 238.821 39.4404 238.672C39.7817 238.523 39.9524 238.288 39.9524 237.968C39.9524 237.659 39.851 237.413 39.6484 237.232C39.4457 237.04 39.1257 236.944 38.6884 236.944C38.2084 236.944 37.8457 237.045 37.6004 237.248C37.3657 237.451 37.2324 237.723 37.2004 238.064H34.8804C34.891 237.701 34.9764 237.349 35.1364 237.008C35.2964 236.667 35.531 236.368 35.8404 236.112C36.1497 235.845 36.539 235.637 37.0084 235.488C37.4777 235.328 38.027 235.248 38.6564 235.248C39.2004 235.248 39.6697 235.291 40.0644 235.376C40.459 235.451 40.8057 235.579 41.1044 235.76C41.5524 236.016 41.8777 236.363 42.0804 236.8C42.2937 237.227 42.4004 237.728 42.4004 238.304V242.672C42.4004 243.323 42.507 243.717 42.7204 243.856V244H40.2724ZM38.1604 242.576C38.7257 242.576 39.1737 242.421 39.5044 242.112C39.8457 241.803 40.0164 241.413 40.0164 240.944V239.84C39.835 239.957 39.611 240.053 39.3444 240.128C39.0884 240.192 38.8217 240.256 38.5444 240.32C37.9897 240.437 37.579 240.581 37.3124 240.752C37.0457 240.923 36.9124 241.195 36.9124 241.568C36.9124 241.941 37.035 242.203 37.2804 242.352C37.5257 242.501 37.819 242.576 38.1604 242.576ZM46.5136 237.008H46.5616C46.839 236.411 47.1696 235.984 47.5536 235.728C47.9376 235.472 48.3963 235.344 48.9296 235.344C49.1856 235.344 49.3616 235.365 49.4576 235.408V237.6H49.3936C49.2123 237.568 49.0363 237.552 48.8656 237.552C48.183 237.541 47.6336 237.749 47.2176 238.176C46.8123 238.592 46.6096 239.216 46.6096 240.048V244H44.0976V235.488H46.5136V237.008ZM50.6601 235.488H53.0761V236.704H53.1241C53.7001 235.733 54.5641 235.248 55.7161 235.248C56.2815 235.248 56.7881 235.36 57.2361 235.584C57.6948 235.808 58.0788 236.123 58.3881 236.528C58.7081 236.923 58.9535 237.397 59.1241 237.952C59.2948 238.496 59.3801 239.093 59.3801 239.744C59.3801 240.437 59.2895 241.067 59.1081 241.632C58.9375 242.187 58.6868 242.661 58.3561 243.056C58.0361 243.44 57.6415 243.739 57.1721 243.952C56.7135 244.165 56.2015 244.272 55.6361 244.272C55.0708 244.272 54.5695 244.155 54.1321 243.92C53.7055 243.685 53.3695 243.36 53.1241 242.944H53.0921C53.1135 243.104 53.1295 243.339 53.1401 243.648C53.1615 243.957 53.1721 244.341 53.1721 244.8V246.832H50.6601V235.488ZM55.0441 242.32C55.6201 242.32 56.0628 242.096 56.3721 241.648C56.6815 241.2 56.8361 240.592 56.8361 239.824C56.8361 239.056 56.6868 238.437 56.3881 237.968C56.0895 237.488 55.6308 237.248 55.0121 237.248C54.6921 237.248 54.4095 237.317 54.1641 237.456C53.9295 237.584 53.7321 237.765 53.5721 238C53.4121 238.235 53.2895 238.507 53.2041 238.816C53.1295 239.125 53.0921 239.461 53.0921 239.824C53.0921 240.56 53.2575 241.163 53.5881 241.632C53.9188 242.091 54.4041 242.32 55.0441 242.32ZM64.7405 244.256C64.0472 244.256 63.4232 244.144 62.8685 243.92C62.3138 243.685 61.8392 243.365 61.4445 242.96C61.0605 242.555 60.7618 242.08 60.5485 241.536C60.3458 240.992 60.2445 240.4 60.2445 239.76C60.2445 239.12 60.3512 238.528 60.5645 237.984C60.7778 237.429 61.0765 236.949 61.4605 236.544C61.8445 236.139 62.3032 235.824 62.8365 235.6C63.3698 235.365 63.9618 235.248 64.6125 235.248C65.2205 235.248 65.7645 235.344 66.2445 235.536C66.7352 235.728 67.1672 235.995 67.5405 236.336C68.0205 236.805 68.3725 237.387 68.5965 238.08C68.8205 238.773 68.9272 239.541 68.9165 240.384H62.7085C62.7938 241.024 63.0072 241.525 63.3485 241.888C63.6898 242.251 64.1645 242.432 64.7725 242.432C65.1672 242.432 65.4872 242.363 65.7325 242.224C65.9885 242.075 66.1858 241.867 66.3245 241.6H68.7565C68.6498 241.973 68.4792 242.325 68.2445 242.656C68.0205 242.976 67.7378 243.259 67.3965 243.504C67.0658 243.739 66.6765 243.92 66.2285 244.048C65.7805 244.187 65.2845 244.256 64.7405 244.256ZM64.6125 237.024C64.0365 237.024 63.5992 237.195 63.3005 237.536C63.0018 237.877 62.8098 238.341 62.7245 238.928H66.3565C66.3138 238.331 66.1378 237.867 65.8285 237.536C65.5192 237.195 65.1138 237.024 64.6125 237.024ZM72.6078 236.784H72.6558C72.9224 236.272 73.2744 235.888 73.7118 235.632C74.1598 235.376 74.6824 235.248 75.2798 235.248C76.2184 235.248 76.9438 235.536 77.4558 236.112C77.9784 236.677 78.2398 237.44 78.2398 238.4V244H75.7438V238.88C75.7438 238.411 75.6211 238.037 75.3758 237.76C75.1411 237.472 74.7891 237.328 74.3198 237.328C73.8291 237.328 73.4344 237.504 73.1358 237.856C72.8371 238.208 72.6878 238.656 72.6878 239.2V244H70.1758V235.488H72.6078V236.784ZM79.1798 235.488H80.4598V232.768H82.9238V235.488H84.5878V237.088H82.9238V241.312C82.9238 241.632 83.0038 241.851 83.1638 241.968C83.3344 242.075 83.5691 242.128 83.8678 242.128C83.9531 242.128 84.0491 242.128 84.1558 242.128C84.2624 242.117 84.3584 242.107 84.4438 242.096H84.5718V243.968C84.4331 243.989 84.2411 244.016 83.9958 244.048C83.7504 244.08 83.4571 244.096 83.1158 244.096C82.7211 244.096 82.3584 244.064 82.0278 244C81.7078 243.925 81.4304 243.803 81.1957 243.632C80.9611 243.451 80.7798 243.221 80.6518 242.944C80.5238 242.656 80.4598 242.293 80.4598 241.856V237.088H79.1798V235.488ZM89.9905 244.256C89.2972 244.256 88.6732 244.144 88.1185 243.92C87.5638 243.685 87.0892 243.365 86.6945 242.96C86.3105 242.555 86.0118 242.08 85.7985 241.536C85.5958 240.992 85.4945 240.4 85.4945 239.76C85.4945 239.12 85.6012 238.528 85.8145 237.984C86.0278 237.429 86.3265 236.949 86.7105 236.544C87.0945 236.139 87.5532 235.824 88.0865 235.6C88.6198 235.365 89.2118 235.248 89.8625 235.248C90.4705 235.248 91.0145 235.344 91.4945 235.536C91.9852 235.728 92.4172 235.995 92.7905 236.336C93.2705 236.805 93.6225 237.387 93.8465 238.08C94.0705 238.773 94.1772 239.541 94.1665 240.384H87.9585C88.0438 241.024 88.2572 241.525 88.5985 241.888C88.9398 242.251 89.4145 242.432 90.0225 242.432C90.4172 242.432 90.7372 242.363 90.9825 242.224C91.2385 242.075 91.4358 241.867 91.5745 241.6H94.0065C93.8998 241.973 93.7292 242.325 93.4945 242.656C93.2705 242.976 92.9878 243.259 92.6465 243.504C92.3158 243.739 91.9265 243.92 91.4785 244.048C91.0305 244.187 90.5345 244.256 89.9905 244.256ZM89.8625 237.024C89.2865 237.024 88.8492 237.195 88.5505 237.536C88.2518 237.877 88.0598 238.341 87.9745 238.928H91.6065C91.5638 238.331 91.3878 237.867 91.0785 237.536C90.7692 237.195 90.3638 237.024 89.8625 237.024ZM97.8418 237.008H97.8898C98.1671 236.411 98.4978 235.984 98.8818 235.728C99.2658 235.472 99.7244 235.344 100.258 235.344C100.514 235.344 100.69 235.365 100.786 235.408V237.6H100.722C100.54 237.568 100.364 237.552 100.194 237.552C99.5111 237.541 98.9618 237.749 98.5458 238.176C98.1404 238.592 97.9378 239.216 97.9378 240.048V244H95.4258V235.488H97.8418V237.008ZM105.524 244.272C104.906 244.272 104.351 244.203 103.86 244.064C103.37 243.925 102.948 243.728 102.596 243.472C102.255 243.216 101.983 242.912 101.78 242.56C101.588 242.197 101.476 241.803 101.444 241.376H103.812C103.887 241.781 104.068 242.091 104.356 242.304C104.655 242.517 105.05 242.624 105.54 242.624C105.988 242.624 106.335 242.539 106.58 242.368C106.826 242.197 106.948 241.957 106.948 241.648C106.948 241.456 106.89 241.301 106.772 241.184C106.655 241.067 106.495 240.971 106.292 240.896C106.09 240.821 105.855 240.763 105.588 240.72C105.332 240.667 105.055 240.613 104.756 240.56C104.372 240.485 103.999 240.4 103.636 240.304C103.274 240.208 102.948 240.064 102.66 239.872C102.372 239.68 102.138 239.429 101.956 239.12C101.786 238.811 101.7 238.405 101.7 237.904C101.7 237.467 101.791 237.083 101.972 236.752C102.164 236.421 102.42 236.144 102.74 235.92C103.06 235.696 103.439 235.531 103.876 235.424C104.314 235.307 104.783 235.248 105.284 235.248C106.468 235.248 107.364 235.483 107.972 235.952C108.58 236.411 108.943 237.013 109.06 237.76H106.724C106.564 237.152 106.084 236.848 105.284 236.848C104.9 236.848 104.591 236.923 104.356 237.072C104.132 237.221 104.02 237.435 104.02 237.712C104.02 237.872 104.074 238.005 104.18 238.112C104.287 238.208 104.436 238.288 104.628 238.352C104.82 238.416 105.044 238.469 105.3 238.512C105.556 238.555 105.828 238.603 106.116 238.656C106.5 238.72 106.884 238.805 107.268 238.912C107.652 239.008 107.999 239.157 108.308 239.36C108.618 239.563 108.868 239.835 109.06 240.176C109.263 240.507 109.364 240.939 109.364 241.472C109.364 241.931 109.268 242.336 109.076 242.688C108.884 243.04 108.618 243.333 108.276 243.568C107.935 243.803 107.53 243.979 107.06 244.096C106.591 244.213 106.079 244.272 105.524 244.272ZM110.579 245.776C110.953 245.68 111.251 245.483 111.475 245.184C111.699 244.896 111.811 244.512 111.811 244.032V244H110.563V241.376H113.219V243.84C113.219 244.341 113.15 244.779 113.011 245.152C112.873 245.525 112.686 245.835 112.451 246.08C112.217 246.325 111.934 246.512 111.603 246.64C111.283 246.779 110.942 246.864 110.579 246.896V245.776ZM122.229 232.096H125.061L129.365 244H126.485L125.733 241.728H121.413L120.677 244H117.941L122.229 232.096ZM122.053 239.776H125.109L124.389 237.552C124.261 237.147 124.149 236.757 124.053 236.384C123.957 236 123.877 235.659 123.813 235.36C123.739 235.008 123.675 234.683 123.621 234.384H123.589C123.504 234.779 123.419 235.163 123.333 235.536C123.248 235.856 123.157 236.203 123.061 236.576C122.976 236.939 122.885 237.264 122.789 237.552L122.053 239.776ZM132.811 237.008H132.859C133.136 236.411 133.467 235.984 133.851 235.728C134.235 235.472 134.693 235.344 135.227 235.344C135.483 235.344 135.659 235.365 135.755 235.408V237.6H135.691C135.509 237.568 135.333 237.552 135.163 237.552C134.48 237.541 133.931 237.749 133.515 238.176C133.109 238.592 132.907 239.216 132.907 240.048V244H130.395V235.488H132.811V237.008ZM140.881 244.272C140.198 244.272 139.579 244.16 139.025 243.936C138.481 243.701 138.011 243.381 137.617 242.976C137.233 242.571 136.934 242.096 136.721 241.552C136.507 240.997 136.401 240.4 136.401 239.76C136.401 239.12 136.502 238.528 136.705 237.984C136.918 237.429 137.217 236.949 137.601 236.544C137.985 236.139 138.449 235.824 138.993 235.6C139.537 235.365 140.145 235.248 140.817 235.248C141.382 235.248 141.894 235.328 142.353 235.488C142.811 235.637 143.206 235.851 143.537 236.128C143.878 236.405 144.155 236.741 144.369 237.136C144.582 237.52 144.726 237.941 144.801 238.4H142.369C142.283 238.005 142.113 237.696 141.857 237.472C141.601 237.237 141.265 237.12 140.849 237.12C140.209 237.12 139.729 237.36 139.409 237.84C139.099 238.32 138.945 238.96 138.945 239.76C138.945 240.539 139.099 241.168 139.409 241.648C139.729 242.128 140.209 242.368 140.849 242.368C141.318 242.368 141.686 242.235 141.953 241.968C142.23 241.701 142.395 241.323 142.449 240.832H144.865C144.843 241.312 144.731 241.765 144.529 242.192C144.337 242.608 144.07 242.971 143.729 243.28C143.387 243.589 142.971 243.829 142.481 244C142.001 244.181 141.467 244.272 140.881 244.272ZM148.547 235.376C148.547 235.397 148.547 235.451 148.547 235.536C148.547 235.621 148.547 235.728 148.547 235.856C148.547 235.984 148.542 236.123 148.531 236.272C148.531 236.421 148.531 236.565 148.531 236.704H148.579C148.835 236.245 149.176 235.888 149.603 235.632C150.03 235.376 150.542 235.248 151.139 235.248C152.078 235.248 152.803 235.536 153.315 236.112C153.838 236.677 154.099 237.44 154.099 238.4V244H151.603V238.88C151.603 238.411 151.48 238.037 151.235 237.76C151 237.472 150.648 237.328 150.179 237.328C149.688 237.328 149.294 237.504 148.995 237.856C148.696 238.208 148.547 238.656 148.547 239.2V244H146.035V232.096H148.547V235.376ZM155.675 232.096H158.219V234.288H155.675V232.096ZM155.691 235.488H158.203V244H155.691V235.488ZM159.367 235.488H160.647V232.768H163.111V235.488H164.775V237.088H163.111V241.312C163.111 241.632 163.191 241.851 163.351 241.968C163.522 242.075 163.757 242.128 164.055 242.128C164.141 242.128 164.237 242.128 164.343 242.128C164.45 242.117 164.546 242.107 164.631 242.096H164.759V243.968C164.621 243.989 164.429 244.016 164.183 244.048C163.938 244.08 163.645 244.096 163.303 244.096C162.909 244.096 162.546 244.064 162.215 244C161.895 243.925 161.618 243.803 161.383 243.632C161.149 243.451 160.967 243.221 160.839 242.944C160.711 242.656 160.647 242.293 160.647 241.856V237.088H159.367V235.488ZM170.178 244.256C169.485 244.256 168.861 244.144 168.306 243.92C167.751 243.685 167.277 243.365 166.882 242.96C166.498 242.555 166.199 242.08 165.986 241.536C165.783 240.992 165.682 240.4 165.682 239.76C165.682 239.12 165.789 238.528 166.002 237.984C166.215 237.429 166.514 236.949 166.898 236.544C167.282 236.139 167.741 235.824 168.274 235.6C168.807 235.365 169.399 235.248 170.05 235.248C170.658 235.248 171.202 235.344 171.682 235.536C172.173 235.728 172.605 235.995 172.978 236.336C173.458 236.805 173.81 237.387 174.034 238.08C174.258 238.773 174.365 239.541 174.354 240.384H168.146C168.231 241.024 168.445 241.525 168.786 241.888C169.127 242.251 169.602 242.432 170.21 242.432C170.605 242.432 170.925 242.363 171.17 242.224C171.426 242.075 171.623 241.867 171.762 241.6H174.194C174.087 241.973 173.917 242.325 173.682 242.656C173.458 242.976 173.175 243.259 172.834 243.504C172.503 243.739 172.114 243.92 171.666 244.048C171.218 244.187 170.722 244.256 170.178 244.256ZM170.05 237.024C169.474 237.024 169.037 237.195 168.738 237.536C168.439 237.877 168.247 238.341 168.162 238.928H171.794C171.751 238.331 171.575 237.867 171.266 237.536C170.957 237.195 170.551 237.024 170.05 237.024ZM179.693 244.272C179.011 244.272 178.392 244.16 177.837 243.936C177.293 243.701 176.824 243.381 176.429 242.976C176.045 242.571 175.747 242.096 175.533 241.552C175.32 240.997 175.213 240.4 175.213 239.76C175.213 239.12 175.315 238.528 175.517 237.984C175.731 237.429 176.029 236.949 176.413 236.544C176.797 236.139 177.261 235.824 177.805 235.6C178.349 235.365 178.957 235.248 179.629 235.248C180.195 235.248 180.707 235.328 181.165 235.488C181.624 235.637 182.019 235.851 182.349 236.128C182.691 236.405 182.968 236.741 183.181 237.136C183.395 237.52 183.539 237.941 183.613 238.4H181.181C181.096 238.005 180.925 237.696 180.669 237.472C180.413 237.237 180.077 237.12 179.661 237.12C179.021 237.12 178.541 237.36 178.221 237.84C177.912 238.32 177.757 238.96 177.757 239.76C177.757 240.539 177.912 241.168 178.221 241.648C178.541 242.128 179.021 242.368 179.661 242.368C180.131 242.368 180.499 242.235 180.765 241.968C181.043 241.701 181.208 241.323 181.261 240.832H183.677C183.656 241.312 183.544 241.765 183.341 242.192C183.149 242.608 182.883 242.971 182.541 243.28C182.2 243.589 181.784 243.829 181.293 244C180.813 244.181 180.28 244.272 179.693 244.272ZM184.352 235.488H185.632V232.768H188.096V235.488H189.76V237.088H188.096V241.312C188.096 241.632 188.176 241.851 188.336 241.968C188.506 242.075 188.741 242.128 189.04 242.128C189.125 242.128 189.221 242.128 189.328 242.128C189.434 242.117 189.53 242.107 189.616 242.096H189.744V243.968C189.605 243.989 189.413 244.016 189.168 244.048C188.922 244.08 188.629 244.096 188.288 244.096C187.893 244.096 187.53 244.064 187.2 244C186.88 243.925 186.602 243.803 186.368 243.632C186.133 243.451 185.952 243.221 185.824 242.944C185.696 242.656 185.632 242.293 185.632 241.856V237.088H184.352V235.488ZM194.759 244.272C194.14 244.272 193.585 244.203 193.095 244.064C192.604 243.925 192.183 243.728 191.831 243.472C191.489 243.216 191.217 242.912 191.015 242.56C190.823 242.197 190.711 241.803 190.679 241.376H193.047C193.121 241.781 193.303 242.091 193.591 242.304C193.889 242.517 194.284 242.624 194.775 242.624C195.223 242.624 195.569 242.539 195.815 242.368C196.06 242.197 196.183 241.957 196.183 241.648C196.183 241.456 196.124 241.301 196.007 241.184C195.889 241.067 195.729 240.971 195.527 240.896C195.324 240.821 195.089 240.763 194.823 240.72C194.567 240.667 194.289 240.613 193.991 240.56C193.607 240.485 193.233 240.4 192.871 240.304C192.508 240.208 192.183 240.064 191.895 239.872C191.607 239.68 191.372 239.429 191.191 239.12C191.02 238.811 190.935 238.405 190.935 237.904C190.935 237.467 191.025 237.083 191.207 236.752C191.399 236.421 191.655 236.144 191.975 235.92C192.295 235.696 192.673 235.531 193.111 235.424C193.548 235.307 194.017 235.248 194.519 235.248C195.703 235.248 196.599 235.483 197.207 235.952C197.815 236.411 198.177 237.013 198.295 237.76H195.959C195.799 237.152 195.319 236.848 194.519 236.848C194.135 236.848 193.825 236.923 193.591 237.072C193.367 237.221 193.255 237.435 193.255 237.712C193.255 237.872 193.308 238.005 193.415 238.112C193.521 238.208 193.671 238.288 193.863 238.352C194.055 238.416 194.279 238.469 194.535 238.512C194.791 238.555 195.063 238.603 195.351 238.656C195.735 238.72 196.119 238.805 196.503 238.912C196.887 239.008 197.233 239.157 197.543 239.36C197.852 239.563 198.103 239.835 198.295 240.176C198.497 240.507 198.599 240.939 198.599 241.472C198.599 241.931 198.503 242.336 198.311 242.688C198.119 243.04 197.852 243.333 197.511 243.568C197.169 243.803 196.764 243.979 196.295 244.096C195.825 244.213 195.313 244.272 194.759 244.272ZM207.595 244.224C206.934 244.224 206.336 244.144 205.803 243.984C205.28 243.813 204.832 243.579 204.459 243.28C204.096 242.981 203.819 242.619 203.627 242.192C203.435 241.765 203.339 241.285 203.339 240.752C203.339 240.293 203.408 239.888 203.547 239.536C203.686 239.173 203.878 238.853 204.123 238.576C204.368 238.299 204.651 238.059 204.971 237.856C205.291 237.643 205.638 237.445 206.011 237.264C205.723 236.923 205.488 236.555 205.307 236.16C205.126 235.765 205.035 235.328 205.035 234.848C205.035 234.432 205.11 234.053 205.259 233.712C205.419 233.36 205.643 233.061 205.931 232.816C206.219 232.56 206.566 232.363 206.971 232.224C207.376 232.085 207.824 232.016 208.315 232.016C208.774 232.016 209.195 232.08 209.579 232.208C209.974 232.325 210.315 232.507 210.603 232.752C210.891 232.987 211.115 233.275 211.275 233.616C211.435 233.957 211.515 234.347 211.515 234.784C211.515 235.157 211.456 235.493 211.339 235.792C211.222 236.08 211.062 236.341 210.859 236.576C210.656 236.8 210.422 237.008 210.155 237.2C209.888 237.381 209.606 237.547 209.307 237.696L209.771 238.272C209.846 238.368 209.931 238.48 210.027 238.608C210.123 238.736 210.224 238.869 210.331 239.008C210.438 239.147 210.539 239.285 210.635 239.424C210.731 239.563 210.816 239.685 210.891 239.792C211.008 239.515 211.099 239.237 211.163 238.96C211.238 238.672 211.296 238.373 211.339 238.064H213.531C213.414 239.291 213.003 240.416 212.299 241.44L214.331 244H211.259L211.019 243.712L210.635 243.168C210.208 243.477 209.739 243.733 209.227 243.936C208.715 244.128 208.171 244.224 207.595 244.224ZM207.627 242.192C208.299 242.192 208.896 242.011 209.419 241.648L207.131 238.704C206.704 238.981 206.395 239.291 206.203 239.632C206.022 239.963 205.931 240.32 205.931 240.704C205.931 241.152 206.091 241.515 206.411 241.792C206.742 242.059 207.147 242.192 207.627 242.192ZM207.355 234.784C207.355 235.093 207.435 235.376 207.595 235.632C207.766 235.877 207.99 236.128 208.267 236.384C208.651 236.16 208.918 235.92 209.067 235.664C209.216 235.397 209.291 235.109 209.291 234.8C209.291 234.501 209.2 234.256 209.019 234.064C208.838 233.872 208.608 233.776 208.331 233.776C208.032 233.776 207.792 233.867 207.611 234.048C207.44 234.229 207.355 234.475 207.355 234.784ZM219.321 232.096H222.057V244H219.321V232.096ZM226.342 236.784H226.39C226.657 236.272 227.009 235.888 227.446 235.632C227.894 235.376 228.417 235.248 229.014 235.248C229.953 235.248 230.678 235.536 231.19 236.112C231.713 236.677 231.974 237.44 231.974 238.4V244H229.478V238.88C229.478 238.411 229.355 238.037 229.11 237.76C228.875 237.472 228.523 237.328 228.054 237.328C227.563 237.328 227.169 237.504 226.87 237.856C226.571 238.208 226.422 238.656 226.422 239.2V244H223.91V235.488H226.342V236.784ZM232.914 235.488H234.194V232.768H236.658V235.488H238.322V237.088H236.658V241.312C236.658 241.632 236.738 241.851 236.898 241.968C237.069 242.075 237.303 242.128 237.602 242.128C237.687 242.128 237.783 242.128 237.89 242.128C237.997 242.117 238.093 242.107 238.178 242.096H238.306V243.968C238.167 243.989 237.975 244.016 237.73 244.048C237.485 244.08 237.191 244.096 236.85 244.096C236.455 244.096 236.093 244.064 235.762 244C235.442 243.925 235.165 243.803 234.93 243.632C234.695 243.451 234.514 243.221 234.386 242.944C234.258 242.656 234.194 242.293 234.194 241.856V237.088H232.914V235.488ZM243.725 244.256C243.032 244.256 242.408 244.144 241.853 243.92C241.298 243.685 240.824 243.365 240.429 242.96C240.045 242.555 239.746 242.08 239.533 241.536C239.33 240.992 239.229 240.4 239.229 239.76C239.229 239.12 239.336 238.528 239.549 237.984C239.762 237.429 240.061 236.949 240.445 236.544C240.829 236.139 241.288 235.824 241.821 235.6C242.354 235.365 242.946 235.248 243.597 235.248C244.205 235.248 244.749 235.344 245.229 235.536C245.72 235.728 246.152 235.995 246.525 236.336C247.005 236.805 247.357 237.387 247.581 238.08C247.805 238.773 247.912 239.541 247.901 240.384H241.693C241.778 241.024 241.992 241.525 242.333 241.888C242.674 242.251 243.149 242.432 243.757 242.432C244.152 242.432 244.472 242.363 244.717 242.224C244.973 242.075 245.17 241.867 245.309 241.6H247.741C247.634 241.973 247.464 242.325 247.229 242.656C247.005 242.976 246.722 243.259 246.381 243.504C246.05 243.739 245.661 243.92 245.213 244.048C244.765 244.187 244.269 244.256 243.725 244.256ZM243.597 237.024C243.021 237.024 242.584 237.195 242.285 237.536C241.986 237.877 241.794 238.341 241.709 238.928H245.341C245.298 238.331 245.122 237.867 244.813 237.536C244.504 237.195 244.098 237.024 243.597 237.024ZM251.576 237.008H251.624C251.901 236.411 252.232 235.984 252.616 235.728C253 235.472 253.459 235.344 253.992 235.344C254.248 235.344 254.424 235.365 254.52 235.408V237.6H254.456C254.275 237.568 254.099 237.552 253.928 237.552C253.245 237.541 252.696 237.749 252.28 238.176C251.875 238.592 251.672 239.216 251.672 240.048V244H249.16V235.488H251.576V237.008ZM255.707 232.096H258.251V234.288H255.707V232.096ZM255.723 235.488H258.235V244H255.723V235.488ZM264.007 244.272C263.324 244.272 262.705 244.16 262.151 243.936C261.596 243.701 261.121 243.381 260.727 242.976C260.332 242.571 260.028 242.096 259.815 241.552C259.601 240.997 259.495 240.4 259.495 239.76C259.495 239.12 259.601 238.528 259.815 237.984C260.028 237.429 260.332 236.949 260.727 236.544C261.121 236.139 261.596 235.824 262.151 235.6C262.705 235.365 263.324 235.248 264.007 235.248C264.679 235.248 265.292 235.365 265.847 235.6C266.401 235.824 266.871 236.139 267.255 236.544C267.649 236.949 267.953 237.429 268.167 237.984C268.38 238.528 268.487 239.12 268.487 239.76C268.487 240.4 268.38 240.997 268.167 241.552C267.953 242.096 267.649 242.571 267.255 242.976C266.871 243.381 266.401 243.701 265.847 243.936C265.292 244.16 264.679 244.272 264.007 244.272ZM263.991 242.448C264.62 242.448 265.1 242.203 265.431 241.712C265.772 241.211 265.943 240.56 265.943 239.76C265.943 238.949 265.772 238.293 265.431 237.792C265.1 237.291 264.62 237.04 263.991 237.04C263.351 237.04 262.865 237.291 262.535 237.792C262.204 238.293 262.039 238.949 262.039 239.76C262.039 240.56 262.204 241.211 262.535 241.712C262.865 242.203 263.351 242.448 263.991 242.448ZM272.17 237.008H272.218C272.495 236.411 272.826 235.984 273.21 235.728C273.594 235.472 274.053 235.344 274.586 235.344C274.842 235.344 275.018 235.365 275.114 235.408V237.6H275.05C274.869 237.568 274.693 237.552 274.522 237.552C273.839 237.541 273.29 237.749 272.874 238.176C272.469 238.592 272.266 239.216 272.266 240.048V244H269.754V235.488H272.17V237.008ZM280.384 232.096H285.344C286.176 232.096 286.928 232.24 287.6 232.528C288.282 232.816 288.864 233.221 289.344 233.744C289.824 234.267 290.192 234.901 290.448 235.648C290.704 236.395 290.832 237.221 290.832 238.128C290.832 239.013 290.709 239.819 290.464 240.544C290.218 241.259 289.856 241.872 289.376 242.384C288.896 242.896 288.304 243.296 287.6 243.584C286.896 243.861 286.09 244 285.184 244H280.384V232.096ZM284.976 241.696C286.01 241.696 286.778 241.387 287.28 240.768C287.792 240.149 288.048 239.269 288.048 238.128C288.048 236.997 287.792 236.096 287.28 235.424C286.778 234.741 286.026 234.4 285.024 234.4H283.12V241.696H284.976ZM296.241 244.256C295.547 244.256 294.923 244.144 294.369 243.92C293.814 243.685 293.339 243.365 292.945 242.96C292.561 242.555 292.262 242.08 292.049 241.536C291.846 240.992 291.745 240.4 291.745 239.76C291.745 239.12 291.851 238.528 292.065 237.984C292.278 237.429 292.577 236.949 292.961 236.544C293.345 236.139 293.803 235.824 294.337 235.6C294.87 235.365 295.462 235.248 296.113 235.248C296.721 235.248 297.265 235.344 297.745 235.536C298.235 235.728 298.667 235.995 299.041 236.336C299.521 236.805 299.873 237.387 300.097 238.08C300.321 238.773 300.427 239.541 300.417 240.384H294.209C294.294 241.024 294.507 241.525 294.849 241.888C295.19 242.251 295.665 242.432 296.273 242.432C296.667 242.432 296.987 242.363 297.233 242.224C297.489 242.075 297.686 241.867 297.825 241.6H300.257C300.15 241.973 299.979 242.325 299.745 242.656C299.521 242.976 299.238 243.259 298.897 243.504C298.566 243.739 298.177 243.92 297.729 244.048C297.281 244.187 296.785 244.256 296.241 244.256ZM296.113 237.024C295.537 237.024 295.099 237.195 294.801 237.536C294.502 237.877 294.31 238.341 294.225 238.928H297.857C297.814 238.331 297.638 237.867 297.329 237.536C297.019 237.195 296.614 237.024 296.113 237.024ZM305.212 244.272C304.593 244.272 304.038 244.203 303.548 244.064C303.057 243.925 302.636 243.728 302.284 243.472C301.942 243.216 301.67 242.912 301.468 242.56C301.276 242.197 301.164 241.803 301.132 241.376H303.5C303.574 241.781 303.756 242.091 304.044 242.304C304.342 242.517 304.737 242.624 305.228 242.624C305.676 242.624 306.022 242.539 306.268 242.368C306.513 242.197 306.636 241.957 306.636 241.648C306.636 241.456 306.577 241.301 306.46 241.184C306.342 241.067 306.182 240.971 305.98 240.896C305.777 240.821 305.542 240.763 305.276 240.72C305.02 240.667 304.742 240.613 304.444 240.56C304.06 240.485 303.686 240.4 303.324 240.304C302.961 240.208 302.636 240.064 302.348 239.872C302.06 239.68 301.825 239.429 301.644 239.12C301.473 238.811 301.388 238.405 301.388 237.904C301.388 237.467 301.478 237.083 301.66 236.752C301.852 236.421 302.108 236.144 302.428 235.92C302.748 235.696 303.126 235.531 303.564 235.424C304.001 235.307 304.47 235.248 304.972 235.248C306.156 235.248 307.052 235.483 307.66 235.952C308.268 236.411 308.63 237.013 308.748 237.76H306.412C306.252 237.152 305.772 236.848 304.972 236.848C304.588 236.848 304.278 236.923 304.044 237.072C303.82 237.221 303.708 237.435 303.708 237.712C303.708 237.872 303.761 238.005 303.868 238.112C303.974 238.208 304.124 238.288 304.316 238.352C304.508 238.416 304.732 238.469 304.988 238.512C305.244 238.555 305.516 238.603 305.804 238.656C306.188 238.72 306.572 238.805 306.956 238.912C307.34 239.008 307.686 239.157 307.996 239.36C308.305 239.563 308.556 239.835 308.748 240.176C308.95 240.507 309.052 240.939 309.052 241.472C309.052 241.931 308.956 242.336 308.764 242.688C308.572 243.04 308.305 243.333 307.964 243.568C307.622 243.803 307.217 243.979 306.748 244.096C306.278 244.213 305.766 244.272 305.212 244.272ZM310.285 232.096H312.829V234.288H310.285V232.096ZM310.301 235.488H312.813V244H310.301V235.488ZM318.425 246.96C317.251 246.96 316.307 246.725 315.593 246.256C314.878 245.797 314.457 245.147 314.329 244.304H316.777C316.862 244.56 317.027 244.768 317.273 244.928C317.529 245.088 317.902 245.168 318.393 245.168C318.99 245.168 319.433 245.024 319.721 244.736C320.019 244.448 320.169 244.043 320.169 243.52V243.344C320.169 242.885 320.185 242.512 320.217 242.224H320.153C319.651 243.056 318.883 243.472 317.849 243.472C317.358 243.472 316.889 243.387 316.441 243.216C315.993 243.035 315.598 242.773 315.257 242.432C314.915 242.08 314.643 241.653 314.441 241.152C314.238 240.651 314.137 240.08 314.137 239.44C314.137 238.821 314.222 238.256 314.393 237.744C314.574 237.221 314.825 236.779 315.145 236.416C315.465 236.043 315.843 235.755 316.281 235.552C316.718 235.349 317.198 235.248 317.721 235.248C318.297 235.248 318.787 235.349 319.193 235.552C319.598 235.755 319.923 236.096 320.169 236.576H320.201V235.488H322.601V243.248C322.601 243.888 322.499 244.432 322.297 244.88C322.105 245.339 321.838 245.723 321.497 246.032C321.123 246.352 320.675 246.587 320.153 246.736C319.63 246.885 319.054 246.96 318.425 246.96ZM318.409 241.584C318.729 241.584 319.001 241.531 319.225 241.424C319.459 241.307 319.651 241.147 319.801 240.944C319.961 240.741 320.073 240.507 320.137 240.24C320.211 239.973 320.249 239.68 320.249 239.36C320.249 238.731 320.094 238.208 319.785 237.792C319.475 237.365 319.011 237.152 318.393 237.152C317.838 237.152 317.401 237.355 317.081 237.76C316.761 238.155 316.601 238.693 316.601 239.376C316.601 240.048 316.761 240.587 317.081 240.992C317.401 241.387 317.843 241.584 318.409 241.584ZM326.717 236.784H326.765C327.032 236.272 327.384 235.888 327.821 235.632C328.269 235.376 328.792 235.248 329.389 235.248C330.328 235.248 331.053 235.536 331.565 236.112C332.088 236.677 332.349 237.44 332.349 238.4V244H329.853V238.88C329.853 238.411 329.73 238.037 329.485 237.76C329.25 237.472 328.898 237.328 328.429 237.328C327.938 237.328 327.544 237.504 327.245 237.856C326.946 238.208 326.797 238.656 326.797 239.2V244H324.285V235.488H326.717V236.784ZM338.037 244.256C337.344 244.256 336.72 244.144 336.165 243.92C335.611 243.685 335.136 243.365 334.741 242.96C334.357 242.555 334.059 242.08 333.845 241.536C333.643 240.992 333.541 240.4 333.541 239.76C333.541 239.12 333.648 238.528 333.861 237.984C334.075 237.429 334.373 236.949 334.757 236.544C335.141 236.139 335.6 235.824 336.133 235.6C336.667 235.365 337.259 235.248 337.909 235.248C338.517 235.248 339.061 235.344 339.541 235.536C340.032 235.728 340.464 235.995 340.837 236.336C341.317 236.805 341.669 237.387 341.893 238.08C342.117 238.773 342.224 239.541 342.213 240.384H336.005C336.091 241.024 336.304 241.525 336.645 241.888C336.987 242.251 337.461 242.432 338.069 242.432C338.464 242.432 338.784 242.363 339.029 242.224C339.285 242.075 339.483 241.867 339.621 241.6H342.053C341.947 241.973 341.776 242.325 341.541 242.656C341.317 242.976 341.035 243.259 340.693 243.504C340.363 243.739 339.973 243.92 339.525 244.048C339.077 244.187 338.581 244.256 338.037 244.256ZM337.909 237.024C337.333 237.024 336.896 237.195 336.597 237.536C336.299 237.877 336.107 238.341 336.021 238.928H339.653C339.611 238.331 339.435 237.867 339.125 237.536C338.816 237.195 338.411 237.024 337.909 237.024ZM345.889 237.008H345.937C346.214 236.411 346.545 235.984 346.929 235.728C347.313 235.472 347.771 235.344 348.305 235.344C348.561 235.344 348.737 235.365 348.833 235.408V237.6H348.769C348.587 237.568 348.411 237.552 348.241 237.552C347.558 237.541 347.009 237.749 346.593 238.176C346.187 238.592 345.985 239.216 345.985 240.048V244H343.473V235.488H345.889V237.008ZM353.571 244.272C352.952 244.272 352.398 244.203 351.907 244.064C351.416 243.925 350.995 243.728 350.643 243.472C350.302 243.216 350.03 242.912 349.827 242.56C349.635 242.197 349.523 241.803 349.491 241.376H351.859C351.934 241.781 352.115 242.091 352.403 242.304C352.702 242.517 353.096 242.624 353.587 242.624C354.035 242.624 354.382 242.539 354.627 242.368C354.872 242.197 354.995 241.957 354.995 241.648C354.995 241.456 354.936 241.301 354.819 241.184C354.702 241.067 354.542 240.971 354.339 240.896C354.136 240.821 353.902 240.763 353.635 240.72C353.379 240.667 353.102 240.613 352.803 240.56C352.419 240.485 352.046 240.4 351.683 240.304C351.32 240.208 350.995 240.064 350.707 239.872C350.419 239.68 350.184 239.429 350.003 239.12C349.832 238.811 349.747 238.405 349.747 237.904C349.747 237.467 349.838 237.083 350.019 236.752C350.211 236.421 350.467 236.144 350.787 235.92C351.107 235.696 351.486 235.531 351.923 235.424C352.36 235.307 352.83 235.248 353.331 235.248C354.515 235.248 355.411 235.483 356.019 235.952C356.627 236.411 356.99 237.013 357.107 237.76H354.771C354.611 237.152 354.131 236.848 353.331 236.848C352.947 236.848 352.638 236.923 352.403 237.072C352.179 237.221 352.067 237.435 352.067 237.712C352.067 237.872 352.12 238.005 352.227 238.112C352.334 238.208 352.483 238.288 352.675 238.352C352.867 238.416 353.091 238.469 353.347 238.512C353.603 238.555 353.875 238.603 354.163 238.656C354.547 238.72 354.931 238.805 355.315 238.912C355.699 239.008 356.046 239.157 356.355 239.36C356.664 239.563 356.915 239.835 357.107 240.176C357.31 240.507 357.411 240.939 357.411 241.472C357.411 241.931 357.315 242.336 357.123 242.688C356.931 243.04 356.664 243.333 356.323 243.568C355.982 243.803 355.576 243.979 355.107 244.096C354.638 244.213 354.126 244.272 353.571 244.272Z" fill="#6B1900"/>
<path d="M77.384 336.848H66.696V332.208L77.416 318.96H82.408V333.008H85.8V336.848H82.408V342H77.384V336.848ZM70.184 333.2C70.568 333.179 70.952 333.147 71.336 333.104C71.656 333.083 72.008 333.061 72.392 333.04C72.776 333.019 73.128 333.008 73.448 333.008H77.384V327.504C77.384 327.163 77.384 326.8 77.384 326.416C77.4053 326.011 77.4267 325.627 77.448 325.264C77.4693 324.859 77.5013 324.443 77.544 324.016H77.48C77.224 324.4 76.968 324.784 76.712 325.168C76.4773 325.488 76.232 325.829 75.976 326.192C75.72 326.555 75.4747 326.885 75.24 327.184L72.808 330.224C72.5733 330.523 72.3067 330.843 72.008 331.184C71.7093 331.504 71.4213 331.813 71.144 332.112C70.824 332.453 70.504 332.795 70.184 333.136V333.2ZM119.447 335.328L113.327 324.144H117.815L119.735 327.888C119.943 328.304 120.151 328.76 120.359 329.256C120.567 329.736 120.759 330.192 120.935 330.624C121.127 331.136 121.319 331.64 121.511 332.136H121.559C121.751 331.64 121.951 331.136 122.159 330.624C122.335 330.192 122.527 329.736 122.735 329.256C122.959 328.76 123.175 328.304 123.383 327.888L125.327 324.144H129.647L123.527 335.28V342H119.447V335.328ZM134.54 342.384C133.5 342.384 132.564 342.216 131.732 341.88C130.9 341.528 130.188 341.048 129.596 340.44C129.02 339.832 128.572 339.12 128.252 338.304C127.948 337.488 127.796 336.6 127.796 335.64C127.796 334.68 127.956 333.792 128.276 332.976C128.596 332.144 129.044 331.424 129.62 330.816C130.196 330.208 130.884 329.736 131.684 329.4C132.484 329.048 133.372 328.872 134.348 328.872C135.26 328.872 136.076 329.016 136.796 329.304C137.532 329.592 138.18 329.992 138.74 330.504C139.46 331.208 139.988 332.08 140.324 333.12C140.66 334.16 140.82 335.312 140.804 336.576H131.492C131.62 337.536 131.94 338.288 132.452 338.832C132.964 339.376 133.676 339.648 134.588 339.648C135.18 339.648 135.66 339.544 136.028 339.336C136.412 339.112 136.708 338.8 136.916 338.4H140.564C140.404 338.96 140.148 339.488 139.796 339.984C139.46 340.464 139.036 340.888 138.524 341.256C138.028 341.608 137.444 341.88 136.772 342.072C136.1 342.28 135.356 342.384 134.54 342.384ZM134.348 331.536C133.484 331.536 132.828 331.792 132.38 332.304C131.932 332.816 131.644 333.512 131.516 334.392H136.964C136.9 333.496 136.636 332.8 136.172 332.304C135.708 331.792 135.1 331.536 134.348 331.536ZM150.877 342C150.781 341.856 150.693 341.656 150.613 341.4C150.533 341.128 150.477 340.808 150.445 340.44H150.397C149.981 341.032 149.477 341.496 148.885 341.832C148.309 342.168 147.525 342.336 146.533 342.336C145.909 342.336 145.325 342.248 144.781 342.072C144.253 341.912 143.789 341.672 143.389 341.352C143.005 341.032 142.701 340.632 142.477 340.152C142.269 339.656 142.165 339.096 142.165 338.472C142.165 337.768 142.293 337.184 142.549 336.72C142.821 336.256 143.181 335.88 143.629 335.592C144.077 335.304 144.605 335.088 145.213 334.944C145.821 334.784 146.477 334.664 147.181 334.584C148.317 334.424 149.133 334.232 149.629 334.008C150.141 333.784 150.397 333.432 150.397 332.952C150.397 332.488 150.245 332.12 149.941 331.848C149.637 331.56 149.157 331.416 148.501 331.416C147.781 331.416 147.237 331.568 146.869 331.872C146.517 332.176 146.317 332.584 146.269 333.096H142.789C142.805 332.552 142.933 332.024 143.173 331.512C143.413 331 143.765 330.552 144.229 330.168C144.693 329.768 145.277 329.456 145.981 329.232C146.685 328.992 147.509 328.872 148.453 328.872C149.269 328.872 149.973 328.936 150.565 329.064C151.157 329.176 151.677 329.368 152.125 329.64C152.797 330.024 153.285 330.544 153.589 331.2C153.909 331.84 154.069 332.592 154.069 333.456V340.008C154.069 340.984 154.229 341.576 154.549 341.784V342H150.877ZM147.709 339.864C148.557 339.864 149.229 339.632 149.725 339.168C150.237 338.704 150.493 338.12 150.493 337.416V335.76C150.221 335.936 149.885 336.08 149.485 336.192C149.101 336.288 148.701 336.384 148.285 336.48C147.453 336.656 146.837 336.872 146.437 337.128C146.037 337.384 145.837 337.792 145.837 338.352C145.837 338.912 146.021 339.304 146.389 339.528C146.757 339.752 147.197 339.864 147.709 339.864ZM160.239 331.512H160.311C160.727 330.616 161.223 329.976 161.799 329.592C162.375 329.208 163.063 329.016 163.863 329.016C164.247 329.016 164.511 329.048 164.655 329.112V332.4H164.559C164.287 332.352 164.023 332.328 163.767 332.328C162.743 332.312 161.919 332.624 161.295 333.264C160.687 333.888 160.383 334.824 160.383 336.072V342H156.615V329.232H160.239V331.512ZM171.763 342.408C170.835 342.408 170.003 342.304 169.267 342.096C168.531 341.888 167.899 341.592 167.371 341.208C166.859 340.824 166.451 340.368 166.147 339.84C165.859 339.296 165.691 338.704 165.643 338.064H169.195C169.307 338.672 169.579 339.136 170.011 339.456C170.459 339.776 171.051 339.936 171.787 339.936C172.459 339.936 172.979 339.808 173.347 339.552C173.715 339.296 173.899 338.936 173.899 338.472C173.899 338.184 173.811 337.952 173.635 337.776C173.459 337.6 173.219 337.456 172.915 337.344C172.611 337.232 172.259 337.144 171.859 337.08C171.475 337 171.059 336.92 170.611 336.84C170.035 336.728 169.475 336.6 168.931 336.456C168.387 336.312 167.899 336.096 167.467 335.808C167.035 335.52 166.683 335.144 166.411 334.68C166.155 334.216 166.027 333.608 166.027 332.856C166.027 332.2 166.163 331.624 166.435 331.128C166.723 330.632 167.107 330.216 167.587 329.88C168.067 329.544 168.635 329.296 169.291 329.136C169.947 328.96 170.651 328.872 171.403 328.872C173.179 328.872 174.523 329.224 175.435 329.928C176.347 330.616 176.891 331.52 177.067 332.64H173.563C173.323 331.728 172.603 331.272 171.403 331.272C170.827 331.272 170.363 331.384 170.011 331.608C169.675 331.832 169.507 332.152 169.507 332.568C169.507 332.808 169.587 333.008 169.747 333.168C169.907 333.312 170.131 333.432 170.419 333.528C170.707 333.624 171.043 333.704 171.427 333.768C171.811 333.832 172.219 333.904 172.651 333.984C173.227 334.08 173.803 334.208 174.379 334.368C174.955 334.512 175.475 334.736 175.939 335.04C176.403 335.344 176.779 335.752 177.067 336.264C177.371 336.76 177.523 337.408 177.523 338.208C177.523 338.896 177.379 339.504 177.091 340.032C176.803 340.56 176.403 341 175.891 341.352C175.379 341.704 174.771 341.968 174.067 342.144C173.363 342.32 172.595 342.408 171.763 342.408ZM185.162 324.144H188.978V327.432H185.162V324.144ZM185.186 329.232H188.954V342H185.186V329.232ZM195.091 331.176H195.163C195.563 330.408 196.091 329.832 196.747 329.448C197.419 329.064 198.203 328.872 199.099 328.872C200.507 328.872 201.595 329.304 202.363 330.168C203.147 331.016 203.539 332.16 203.539 333.6V342H199.795V334.32C199.795 333.616 199.611 333.056 199.243 332.64C198.891 332.208 198.363 331.992 197.659 331.992C196.923 331.992 196.331 332.256 195.883 332.784C195.435 333.312 195.211 333.984 195.211 334.8V342H191.443V329.232H195.091V331.176ZM211.981 324.144H220.429C222.269 324.144 223.661 324.552 224.605 325.368C225.613 326.248 226.117 327.384 226.117 328.776C226.117 330.568 225.157 331.76 223.237 332.352V332.448C224.389 332.72 225.269 333.24 225.877 334.008C226.501 334.76 226.813 335.688 226.813 336.792C226.813 337.656 226.661 338.408 226.357 339.048C226.053 339.688 225.621 340.232 225.061 340.68C223.989 341.56 222.517 342 220.645 342H211.981V324.144ZM219.853 331.32C220.557 331.32 221.117 331.16 221.533 330.84C221.965 330.504 222.181 330 222.181 329.328C222.181 328.672 221.973 328.176 221.557 327.84C221.157 327.488 220.605 327.312 219.901 327.312H216.037V331.32H219.853ZM220.213 338.784C221.013 338.784 221.645 338.568 222.109 338.136C222.541 337.736 222.757 337.192 222.757 336.504C222.757 335.72 222.509 335.136 222.013 334.752C221.517 334.368 220.893 334.176 220.141 334.176H216.037V338.784H220.213ZM237.06 342V340.176H236.988C236.524 340.928 235.988 341.48 235.38 341.832C234.772 342.184 234.028 342.36 233.148 342.36C231.692 342.36 230.58 341.936 229.812 341.088C229.044 340.224 228.66 339.088 228.66 337.68V329.232H232.428V336.96C232.428 337.68 232.596 338.232 232.932 338.616C233.284 339 233.796 339.192 234.468 339.192C235.236 339.192 235.836 338.936 236.268 338.424C236.7 337.912 236.916 337.256 236.916 336.456V329.232H240.636V342H237.06ZM248.427 342.408C247.499 342.408 246.667 342.304 245.931 342.096C245.195 341.888 244.563 341.592 244.035 341.208C243.523 340.824 243.115 340.368 242.811 339.84C242.523 339.296 242.355 338.704 242.307 338.064H245.859C245.971 338.672 246.243 339.136 246.675 339.456C247.123 339.776 247.715 339.936 248.451 339.936C249.123 339.936 249.643 339.808 250.011 339.552C250.379 339.296 250.563 338.936 250.563 338.472C250.563 338.184 250.475 337.952 250.299 337.776C250.123 337.6 249.883 337.456 249.579 337.344C249.275 337.232 248.923 337.144 248.523 337.08C248.139 337 247.723 336.92 247.275 336.84C246.699 336.728 246.139 336.6 245.595 336.456C245.051 336.312 244.563 336.096 244.131 335.808C243.699 335.52 243.347 335.144 243.075 334.68C242.819 334.216 242.691 333.608 242.691 332.856C242.691 332.2 242.827 331.624 243.099 331.128C243.387 330.632 243.771 330.216 244.251 329.88C244.731 329.544 245.299 329.296 245.955 329.136C246.611 328.96 247.315 328.872 248.067 328.872C249.843 328.872 251.187 329.224 252.099 329.928C253.011 330.616 253.555 331.52 253.731 332.64H250.227C249.987 331.728 249.267 331.272 248.067 331.272C247.491 331.272 247.027 331.384 246.675 331.608C246.339 331.832 246.171 332.152 246.171 332.568C246.171 332.808 246.251 333.008 246.411 333.168C246.571 333.312 246.795 333.432 247.083 333.528C247.371 333.624 247.707 333.704 248.091 333.768C248.475 333.832 248.883 333.904 249.315 333.984C249.891 334.08 250.467 334.208 251.043 334.368C251.619 334.512 252.139 334.736 252.603 335.04C253.067 335.344 253.443 335.752 253.731 336.264C254.035 336.76 254.187 337.408 254.187 338.208C254.187 338.896 254.043 339.504 253.755 340.032C253.467 340.56 253.067 341 252.555 341.352C252.043 341.704 251.435 341.968 250.731 342.144C250.027 342.32 249.259 342.408 248.427 342.408ZM256.037 324.144H259.853V327.432H256.037V324.144ZM256.061 329.232H259.829V342H256.061V329.232ZM265.966 331.176H266.038C266.438 330.408 266.966 329.832 267.622 329.448C268.294 329.064 269.078 328.872 269.974 328.872C271.382 328.872 272.47 329.304 273.238 330.168C274.022 331.016 274.414 332.16 274.414 333.6V342H270.67V334.32C270.67 333.616 270.486 333.056 270.118 332.64C269.766 332.208 269.238 331.992 268.534 331.992C267.798 331.992 267.206 332.256 266.758 332.784C266.31 333.312 266.086 333.984 266.086 334.8V342H262.318V329.232H265.966V331.176ZM282.947 342.384C281.907 342.384 280.971 342.216 280.139 341.88C279.307 341.528 278.595 341.048 278.003 340.44C277.427 339.832 276.979 339.12 276.659 338.304C276.355 337.488 276.203 336.6 276.203 335.64C276.203 334.68 276.363 333.792 276.683 332.976C277.003 332.144 277.451 331.424 278.027 330.816C278.603 330.208 279.291 329.736 280.091 329.4C280.891 329.048 281.779 328.872 282.755 328.872C283.667 328.872 284.483 329.016 285.203 329.304C285.939 329.592 286.587 329.992 287.147 330.504C287.867 331.208 288.395 332.08 288.731 333.12C289.067 334.16 289.227 335.312 289.211 336.576H279.899C280.027 337.536 280.347 338.288 280.859 338.832C281.371 339.376 282.083 339.648 282.995 339.648C283.587 339.648 284.067 339.544 284.435 339.336C284.819 339.112 285.115 338.8 285.323 338.4H288.971C288.811 338.96 288.555 339.488 288.203 339.984C287.867 340.464 287.443 340.888 286.931 341.256C286.435 341.608 285.851 341.88 285.179 342.072C284.507 342.28 283.763 342.384 282.947 342.384ZM282.755 331.536C281.891 331.536 281.235 331.792 280.787 332.304C280.339 332.816 280.051 333.512 279.923 334.392H285.371C285.307 333.496 285.043 332.8 284.579 332.304C284.115 331.792 283.507 331.536 282.755 331.536ZM296.404 342.408C295.476 342.408 294.644 342.304 293.908 342.096C293.172 341.888 292.54 341.592 292.012 341.208C291.5 340.824 291.092 340.368 290.788 339.84C290.5 339.296 290.332 338.704 290.284 338.064H293.836C293.948 338.672 294.22 339.136 294.652 339.456C295.1 339.776 295.692 339.936 296.428 339.936C297.1 339.936 297.62 339.808 297.988 339.552C298.356 339.296 298.54 338.936 298.54 338.472C298.54 338.184 298.452 337.952 298.276 337.776C298.1 337.6 297.86 337.456 297.556 337.344C297.252 337.232 296.9 337.144 296.5 337.08C296.116 337 295.7 336.92 295.252 336.84C294.676 336.728 294.116 336.6 293.572 336.456C293.028 336.312 292.54 336.096 292.108 335.808C291.676 335.52 291.324 335.144 291.052 334.68C290.796 334.216 290.668 333.608 290.668 332.856C290.668 332.2 290.804 331.624 291.076 331.128C291.364 330.632 291.748 330.216 292.228 329.88C292.708 329.544 293.276 329.296 293.932 329.136C294.588 328.96 295.292 328.872 296.044 328.872C297.82 328.872 299.164 329.224 300.076 329.928C300.988 330.616 301.532 331.52 301.708 332.64H298.204C297.964 331.728 297.244 331.272 296.044 331.272C295.468 331.272 295.004 331.384 294.652 331.608C294.316 331.832 294.148 332.152 294.148 332.568C294.148 332.808 294.228 333.008 294.388 333.168C294.548 333.312 294.772 333.432 295.06 333.528C295.348 333.624 295.684 333.704 296.068 333.768C296.452 333.832 296.86 333.904 297.292 333.984C297.868 334.08 298.444 334.208 299.02 334.368C299.596 334.512 300.116 334.736 300.58 335.04C301.044 335.344 301.42 335.752 301.708 336.264C302.012 336.76 302.164 337.408 302.164 338.208C302.164 338.896 302.02 339.504 301.732 340.032C301.444 340.56 301.044 341 300.532 341.352C300.02 341.704 299.412 341.968 298.708 342.144C298.004 342.32 297.236 342.408 296.404 342.408ZM309.458 342.408C308.53 342.408 307.698 342.304 306.962 342.096C306.226 341.888 305.594 341.592 305.066 341.208C304.554 340.824 304.146 340.368 303.842 339.84C303.554 339.296 303.386 338.704 303.338 338.064H306.89C307.002 338.672 307.274 339.136 307.706 339.456C308.154 339.776 308.746 339.936 309.482 339.936C310.154 339.936 310.674 339.808 311.042 339.552C311.41 339.296 311.594 338.936 311.594 338.472C311.594 338.184 311.506 337.952 311.33 337.776C311.154 337.6 310.914 337.456 310.61 337.344C310.306 337.232 309.954 337.144 309.554 337.08C309.17 337 308.754 336.92 308.306 336.84C307.73 336.728 307.17 336.6 306.626 336.456C306.082 336.312 305.594 336.096 305.162 335.808C304.73 335.52 304.378 335.144 304.106 334.68C303.85 334.216 303.722 333.608 303.722 332.856C303.722 332.2 303.858 331.624 304.13 331.128C304.418 330.632 304.802 330.216 305.282 329.88C305.762 329.544 306.33 329.296 306.986 329.136C307.642 328.96 308.346 328.872 309.098 328.872C310.874 328.872 312.218 329.224 313.13 329.928C314.042 330.616 314.586 331.52 314.762 332.64H311.258C311.018 331.728 310.298 331.272 309.098 331.272C308.522 331.272 308.058 331.384 307.706 331.608C307.37 331.832 307.202 332.152 307.202 332.568C307.202 332.808 307.282 333.008 307.442 333.168C307.602 333.312 307.826 333.432 308.114 333.528C308.402 333.624 308.738 333.704 309.122 333.768C309.506 333.832 309.914 333.904 310.346 333.984C310.922 334.08 311.498 334.208 312.074 334.368C312.65 334.512 313.17 334.736 313.634 335.04C314.098 335.344 314.474 335.752 314.762 336.264C315.066 336.76 315.218 337.408 315.218 338.208C315.218 338.896 315.074 339.504 314.786 340.032C314.498 340.56 314.098 341 313.586 341.352C313.074 341.704 312.466 341.968 311.762 342.144C311.058 342.32 310.29 342.408 309.458 342.408Z" fill="white"/>
<path d="M87.6335 329.04H93.4895V322.864H97.7775V329.04H103.634V333.072H97.7775V339.312H93.4895V333.072H87.6335V329.04Z" fill="#FF5724"/>
</svg>
